<svg xmlns="http://www.w3.org/2000/svg" viewBox="0 0 500.000000 500.000000">
	<g transform="translate(0.000000,500.000000) scale(0.100000,-0.100000)" fill="currentColor" stroke="none">
		<path d="M3320 3155 l0 -45 373 -2 372 -3 3 -377 2 -378 44 0 44 0 4 413 c2
                226 2 418 0 425 -3 9 -97 12 -423 12 l-419 0 0 -45z" />
		<path d="M1080 2730 l0 -50 90 0 c50 0 90 -1 90 -3 0 -2 -22 -58 -49 -126
                l-50 -122 57 3 56 3 68 165 c37 91 67 168 68 173 0 4 -74 7 -165 7 l-165 0 0
                -50z" />
		<path d="M1622 2518 c-56 -145 -104 -271 -108 -280 -5 -16 1 -18 48 -18 l54 0
                53 156 c30 85 57 151 61 147 4 -4 28 -69 55 -143 26 -74 50 -141 52 -147 7
                -17 103 -18 103 -1 0 14 -200 530 -209 541 -4 4 -53 -111 -109 -255z" />
		<path d="M2050 2571 l0 -211 50 0 49 0 3 117 3 117 130 -187 129 -187 53 0 53
                0 0 281 0 280 -52 -3 -53 -3 -5 -179 -5 -179 -125 179 -126 179 -52 3 -52 3 0
                -210z" />
		<path d="M2620 2735 l0 -45 165 0 165 0 0 45 0 45 -165 0 -165 0 0 -45z" />
		<path d="M3050 2732 l0 -50 121 -4 c133 -3 149 -11 149 -69 0 -48 -30 -59
                -157 -59 l-113 0 0 -165 0 -165 50 0 49 0 3 113 3 112 30 3 c30 3 32 0 84
                -113 l54 -115 53 0 c30 0 54 2 54 5 0 2 -22 53 -50 113 -27 60 -50 113 -50
                118 0 5 14 18 30 27 41 25 63 71 62 134 0 67 -24 109 -77 137 -33 17 -62 22
                -167 25 l-128 3 0 -50z" />
		<path d="M3642 2518 c-56 -145 -104 -271 -108 -280 -5 -16 1 -18 48 -18 l54 0
                53 156 c30 85 57 151 61 147 4 -4 28 -69 55 -143 26 -74 50 -141 52 -147 7
                -17 103 -18 103 -1 0 14 -200 530 -209 541 -4 4 -53 -111 -109 -255z" />
		<path d="M838 2238 c-2 -227 -2 -419 0 -425 3 -10 97 -13 423 -13 l419 0 0 45
                0 45 -372 2 -373 3 -3 378 -2 377 -44 0 -44 0 -4 -412z" />
		<path d="M2735 2568 c-3 -8 -4 -88 -3 -178 l3 -165 53 -3 52 -3 -2 178 -3 178
                -48 3 c-32 2 -49 -1 -52 -10z" />
		<path d="M1100 2274 c-11 -25 -20 -48 -20 -50 0 -2 74 -4 165 -4 l165 0 0 50
                0 50 -145 0 -146 0 -19 -46z" />
	</g>
</svg>